solid OpenSCAD_Model
  facet normal -1 0 0
    outer loop
      vertex -8 1.5 0
      vertex -8 1.5 4.75
      vertex -8 10.5 0
    endloop
  endfacet
  facet normal -1 0 0
    outer loop
      vertex -8 8 3
      vertex -8 1.5 4.75
      vertex -8 8 4.75
    endloop
  endfacet
  facet normal -1 0 0
    outer loop
      vertex -8 10.5 0
      vertex -8 1.5 4.75
      vertex -8 8 3
    endloop
  endfacet
  facet normal -1 0 0
    outer loop
      vertex -8 10.5 3
      vertex -8 10.5 0
      vertex -8 8 3
    endloop
  endfacet
  facet normal 0 -1 0
    outer loop
      vertex -8 1.5 4.75
      vertex -8 1.5 0
      vertex 0 1.5 0
    endloop
  endfacet
  facet normal 0 -1 0
    outer loop
      vertex -1.5 1.5 3
      vertex -8 1.5 4.75
      vertex 0 1.5 0
    endloop
  endfacet
  facet normal 0 -1 0
    outer loop
      vertex 0 1.5 3
      vertex -1.5 1.5 3
      vertex 0 1.5 0
    endloop
  endfacet
  facet normal 0 -1 0
    outer loop
      vertex -1.5 1.5 3
      vertex -1.5 1.5 4.75
      vertex -8 1.5 4.75
    endloop
  endfacet
  facet normal 0 0 -1
    outer loop
      vertex -8 1.5 0
      vertex -8 10.5 0
      vertex 0 1.5 0
    endloop
  endfacet
  facet normal 0 0 -1
    outer loop
      vertex 0 1.5 0
      vertex -8 10.5 0
      vertex 8 10.5 0
    endloop
  endfacet
  facet normal 0 0 -1
    outer loop
      vertex 8 10.5 0
      vertex 8 42.8 0
      vertex 8.2 42.8 0
    endloop
  endfacet
  facet normal 0 0 -1
    outer loop
      vertex 8.2 42.8 0
      vertex 16 51 0
      vertex 8 10.5 0
    endloop
  endfacet
  facet normal 0 0 -1
    outer loop
      vertex 8 49.5 0
      vertex 0 49.5 0
      vertex 0 51 0
    endloop
  endfacet
  facet normal 0 0 -1
    outer loop
      vertex 8 49.5 0
      vertex 0 51 0
      vertex 8.2 49.5 0
    endloop
  endfacet
  facet normal 0 0 -1
    outer loop
      vertex 8.2 49.5 0
      vertex 0 51 0
      vertex 16 51 0
    endloop
  endfacet
  facet normal 0 0 -1
    outer loop
      vertex 8.2 49.5 0
      vertex 16 51 0
      vertex 8.2 42.8 0
    endloop
  endfacet
  facet normal 0 0 -1
    outer loop
      vertex 8 10.5 0
      vertex 16 51 0
      vertex 16 0 0
    endloop
  endfacet
  facet normal 0 0 -1
    outer loop
      vertex 8 10.5 0
      vertex 16 0 0
      vertex 0 1.5 0
    endloop
  endfacet
  facet normal 0 0 -1
    outer loop
      vertex 0 1.5 0
      vertex 16 0 0
      vertex 0 0 0
    endloop
  endfacet
  facet normal 0 1 0
    outer loop
      vertex -8 10.5 0
      vertex -8 10.5 3
      vertex 8 10.5 0
    endloop
  endfacet
  facet normal 0 1 0
    outer loop
      vertex 8 10.5 0
      vertex -8 10.5 3
      vertex 0 10.5 3
    endloop
  endfacet
  facet normal 0 1 0
    outer loop
      vertex 8 10.5 0
      vertex 0 10.5 3
      vertex -2.22045e-16 10.5 4
    endloop
  endfacet
  facet normal 0 1 0
    outer loop
      vertex 9 10.5 3
      vertex -2.22045e-16 10.5 4
      vertex 146 10.5 4
    endloop
  endfacet
  facet normal 0 1 0
    outer loop
      vertex 8 10.5 3
      vertex -2.22045e-16 10.5 4
      vertex 9 10.5 3
    endloop
  endfacet
  facet normal 0 1 0
    outer loop
      vertex 8 10.5 0
      vertex -2.22045e-16 10.5 4
      vertex 8 10.5 3
    endloop
  endfacet
  facet normal 0 1 0
    outer loop
      vertex 9 10.5 3
      vertex 146 10.5 4
      vertex 146 10.5 3
    endloop
  endfacet
  facet normal 0 0 1
    outer loop
      vertex -8 10.5 3
      vertex -8 8 3
      vertex -1.5 8 3
    endloop
  endfacet
  facet normal 0 0 1
    outer loop
      vertex 0 10.5 3
      vertex -8 10.5 3
      vertex -1.5 8 3
    endloop
  endfacet
  facet normal 0 0 1
    outer loop
      vertex -1.5 1.5 3
      vertex 0 1.5 3
      vertex -1.5 8 3
    endloop
  endfacet
  facet normal 0 0 1
    outer loop
      vertex 0 1.5 3
      vertex 0 6.5 3
      vertex -1.5 8 3
    endloop
  endfacet
  facet normal 0 0 1
    outer loop
      vertex 0 6.5 3
      vertex 0 10.5 3
      vertex -1.5 8 3
    endloop
  endfacet
  facet normal 0 1 0
    outer loop
      vertex -8 8 3
      vertex -8 8 4.75
      vertex -1.5 8 3
    endloop
  endfacet
  facet normal 0 1 0
    outer loop
      vertex -1.5 8 3
      vertex -8 8 4.75
      vertex -1.5 8 4.75
    endloop
  endfacet
  facet normal 0 0 1
    outer loop
      vertex -8 8 4.75
      vertex -8 1.5 4.75
      vertex -1.5 1.5 4.75
    endloop
  endfacet
  facet normal 0 0 1
    outer loop
      vertex -1.5 8 4.75
      vertex -8 8 4.75
      vertex -1.5 1.5 4.75
    endloop
  endfacet
  facet normal 1 0 0
    outer loop
      vertex -1.5 1.5 4.75
      vertex -1.5 1.5 3
      vertex -1.5 8 3
    endloop
  endfacet
  facet normal 1 0 0
    outer loop
      vertex -1.5 8 4.75
      vertex -1.5 1.5 4.75
      vertex -1.5 8 3
    endloop
  endfacet
  facet normal -1 0 0
    outer loop
      vertex 0 0 0
      vertex 0 0 4
      vertex 0 1.5 0
    endloop
  endfacet
  facet normal -1 0 0
    outer loop
      vertex 0 1.5 3
      vertex 0 0 4
      vertex 0 6.5 4
    endloop
  endfacet
  facet normal -1 0 0
    outer loop
      vertex 0 1.5 0
      vertex 0 0 4
      vertex 0 1.5 3
    endloop
  endfacet
  facet normal -1 0 0
    outer loop
      vertex 0 1.5 3
      vertex 0 6.5 4
      vertex 0 6.5 3
    endloop
  endfacet
  facet normal 0 -1 0
    outer loop
      vertex 0 0 4
      vertex 0 0 0
      vertex 16 0 0
    endloop
  endfacet
  facet normal 0 -1 0
    outer loop
      vertex 9 0 3
      vertex 0 0 4
      vertex 16 0 0
    endloop
  endfacet
  facet normal 0 -1 0
    outer loop
      vertex 16 0 3
      vertex 9 0 3
      vertex 16 0 0
    endloop
  endfacet
  facet normal 0 -1 0
    outer loop
      vertex 9 0 3
      vertex 9 0 4
      vertex 0 0 4
    endloop
  endfacet
  facet normal 1 0 0
    outer loop
      vertex 16 0 3
      vertex 16 0 0
      vertex 16 51 0
    endloop
  endfacet
  facet normal 1 0 0
    outer loop
      vertex 16 51 3
      vertex 16 0 3
      vertex 16 51 0
    endloop
  endfacet
  facet normal 0 1 0
    outer loop
      vertex 0 51 0
      vertex 0 51 6.3
      vertex 16 51 0
    endloop
  endfacet
  facet normal 0 1 0
    outer loop
      vertex 11 51 3
      vertex 0 51 6.3
      vertex 11 51 6.3
    endloop
  endfacet
  facet normal 0 1 0
    outer loop
      vertex 16 51 0
      vertex 0 51 6.3
      vertex 11 51 3
    endloop
  endfacet
  facet normal 0 1 0
    outer loop
      vertex 16 51 3
      vertex 16 51 0
      vertex 11 51 3
    endloop
  endfacet
  facet normal -1 0 0
    outer loop
      vertex 0 43.385 6.3
      vertex 0 51 6.3
      vertex 0 43.5 4
    endloop
  endfacet
  facet normal -1 0 0
    outer loop
      vertex 0 49.5 3
      vertex 0 51 6.3
      vertex 0 51 0
    endloop
  endfacet
  facet normal -1 0 0
    outer loop
      vertex 0 44.5 4
      vertex 0 51 6.3
      vertex 0 49.5 3
    endloop
  endfacet
  facet normal -1 0 0
    outer loop
      vertex 0 44.5 4
      vertex 0 49.5 3
      vertex 0 44.5 3
    endloop
  endfacet
  facet normal -1 0 0
    outer loop
      vertex 0 43.5 4
      vertex 0 51 6.3
      vertex 0 44.5 4
    endloop
  endfacet
  facet normal -1 0 0
    outer loop
      vertex 0 49.5 3
      vertex 0 51 0
      vertex 0 49.5 0
    endloop
  endfacet
  facet normal 0 -1 0
    outer loop
      vertex 0 49.5 3
      vertex 0 49.5 0
      vertex 8 49.5 0
    endloop
  endfacet
  facet normal 0 -1 0
    outer loop
      vertex 8 49.5 3
      vertex 0 49.5 3
      vertex 8 49.5 0
    endloop
  endfacet
  facet normal 0 -1 0
    outer loop
      vertex 8 49.5 3
      vertex 8 49.5 0
      vertex 8.2 49.5 0
    endloop
  endfacet
  facet normal 0 -1 0
    outer loop
      vertex 1.5 49.5 4.8
      vertex 8 49.5 3
      vertex 8.2 49.5 4.8
    endloop
  endfacet
  facet normal 0 -1 0
    outer loop
      vertex 8.2 49.5 4.8
      vertex 8 49.5 3
      vertex 8.2 49.5 0
    endloop
  endfacet
  facet normal 0 -1 0
    outer loop
      vertex 1.5 49.5 3
      vertex 8 49.5 3
      vertex 1.5 49.5 4.8
    endloop
  endfacet
  facet normal -1 0 0
    outer loop
      vertex 8.2 42.8 4.8
      vertex 8.2 43 3
      vertex 8.2 42.8 3
    endloop
  endfacet
  facet normal -1 0 0
    outer loop
      vertex 8.2 49.5 4.8
      vertex 8.2 43 3
      vertex 8.2 42.8 4.8
    endloop
  endfacet
  facet normal -1 0 0
    outer loop
      vertex 8.2 43 3
      vertex 8.2 49.5 4.8
      vertex 8.2 49.5 0
    endloop
  endfacet
  facet normal -1 0 0
    outer loop
      vertex 8.2 43 3
      vertex 8.2 49.5 0
      vertex 8.2 42.8 3
    endloop
  endfacet
  facet normal -1 0 0
    outer loop
      vertex 8.2 49.5 0
      vertex 8.2 42.8 0
      vertex 8.2 42.8 3
    endloop
  endfacet
  facet normal 0 1 0
    outer loop
      vertex 8.2 42.8 3
      vertex 8.2 42.8 0
      vertex 8 42.8 3
    endloop
  endfacet
  facet normal 0 1 0
    outer loop
      vertex 8 42.8 3
      vertex 8.2 42.8 0
      vertex 8 42.8 0
    endloop
  endfacet
  facet normal -1 0 0
    outer loop
      vertex 8 10.5 0
      vertex 8 10.5 3
      vertex 8 42.8 0
    endloop
  endfacet
  facet normal -1 0 0
    outer loop
      vertex 8 42.8 0
      vertex 8 10.5 3
      vertex 8 42.8 3
    endloop
  endfacet
  facet normal 0 0 1
    outer loop
      vertex 8 42.8 3
      vertex 8 10.5 3
      vertex 9 10.5 3
    endloop
  endfacet
  facet normal 0 0 1
    outer loop
      vertex 16 0 3
      vertex 8 42.8 3
      vertex 9 10.5 3
    endloop
  endfacet
  facet normal 0 0 1
    outer loop
      vertex 9 0 3
      vertex 16 0 3
      vertex 9 10.5 3
    endloop
  endfacet
  facet normal 0 0 1
    outer loop
      vertex 8.2 43 3
      vertex 8.2 42.8 3
      vertex 11 43 3
    endloop
  endfacet
  facet normal 0 0 1
    outer loop
      vertex 16 0 3
      vertex 16 51 3
      vertex 11 43 3
    endloop
  endfacet
  facet normal 0 0 1
    outer loop
      vertex 16 0 3
      vertex 8.2 42.8 3
      vertex 8 42.8 3
    endloop
  endfacet
  facet normal 0 0 1
    outer loop
      vertex 16 0 3
      vertex 11 43 3
      vertex 8.2 42.8 3
    endloop
  endfacet
  facet normal 0 0 1
    outer loop
      vertex 11 51 3
      vertex 11 43 3
      vertex 16 51 3
    endloop
  endfacet
  facet normal 1 0 0
    outer loop
      vertex 9 6.5 3
      vertex 9 0 3
      vertex 9 10.5 3
    endloop
  endfacet
  facet normal 1 0 0
    outer loop
      vertex 9 6.5 3
      vertex 9 6.5 4
      vertex 9 0 4
    endloop
  endfacet
  facet normal 1 0 0
    outer loop
      vertex 9 0 4
      vertex 9 0 3
      vertex 9 6.5 3
    endloop
  endfacet
  facet normal 2.22045e-16 0 -1
    outer loop
      vertex 9 6.5 3
      vertex 9 10.5 3
      vertex 135 6.5 3
    endloop
  endfacet
  facet normal 2.22045e-16 0 -1
    outer loop
      vertex 137.8 8.2 3
      vertex 9 10.5 3
      vertex 146 10.5 3
    endloop
  endfacet
  facet normal 2.22045e-16 0 -1
    outer loop
      vertex 146 8 3
      vertex 146 10.5 3
      vertex 146 6.5 3
    endloop
  endfacet
  facet normal 2.22045e-16 0 -1
    outer loop
      vertex 144.5 8 3
      vertex 146 10.5 3
      vertex 146 8 3
    endloop
  endfacet
  facet normal 2.22045e-16 0 -1
    outer loop
      vertex 144.5 8.2 3
      vertex 146 10.5 3
      vertex 144.5 8 3
    endloop
  endfacet
  facet normal 2.22045e-16 0 -1
    outer loop
      vertex 135 8 3
      vertex 9 10.5 3
      vertex 137.8 8.2 3
    endloop
  endfacet
  facet normal 2.22045e-16 0 -1
    outer loop
      vertex 135 8 3
      vertex 137.8 8.2 3
      vertex 137.8 8 3
    endloop
  endfacet
  facet normal 2.22045e-16 0 -1
    outer loop
      vertex 135 6.5 3
      vertex 9 10.5 3
      vertex 135 8 3
    endloop
  endfacet
  facet normal 2.22045e-16 0 -1
    outer loop
      vertex 137.8 8.2 3
      vertex 146 10.5 3
      vertex 144.5 8.2 3
    endloop
  endfacet
  facet normal 1 0 2.22045e-16
    outer loop
      vertex 146 9.25 9
      vertex 146 7.75 9
      vertex 146 7.5 4
    endloop
  endfacet
  facet normal 1 0 2.22045e-16
    outer loop
      vertex 146 9.5 4
      vertex 146 9.25 9
      vertex 146 7.5 4
    endloop
  endfacet
  facet normal 1 0 2.22045e-16
    outer loop
      vertex 146 6.5 4
      vertex 146 6.5 3
      vertex 146 7.5 4
    endloop
  endfacet
  facet normal 1 0 2.22045e-16
    outer loop
      vertex 146 6.5 3
      vertex 146 10.5 3
      vertex 146 7.5 4
    endloop
  endfacet
  facet normal 1 0 2.22045e-16
    outer loop
      vertex 146 10.5 3
      vertex 146 9.5 4
      vertex 146 7.5 4
    endloop
  endfacet
  facet normal 1 0 2.22045e-16
    outer loop
      vertex 146 10.5 4
      vertex 146 9.5 4
      vertex 146 10.5 3
    endloop
  endfacet
  facet normal -2.22045e-16 0 1
    outer loop
      vertex -2.22045e-16 10.5 4
      vertex -2.22045e-16 9.5 4
      vertex 146 9.5 4
    endloop
  endfacet
  facet normal -2.22045e-16 0 1
    outer loop
      vertex 146 10.5 4
      vertex -2.22045e-16 10.5 4
      vertex 146 9.5 4
    endloop
  endfacet
  facet normal -1 0 -2.22045e-16
    outer loop
      vertex -1.33227e-15 7.75 9
      vertex -1.33227e-15 9.25 9
      vertex -2.22045e-16 7.5 4
    endloop
  endfacet
  facet normal -1 0 -2.22045e-16
    outer loop
      vertex -2.22045e-16 7.5 4
      vertex -1.33227e-15 9.25 9
      vertex -2.22045e-16 9.5 4
    endloop
  endfacet
  facet normal -1 0 -2.22045e-16
    outer loop
      vertex -2.22045e-16 9.5 4
      vertex -2.22045e-16 10.5 4
      vertex 0 10.5 3
    endloop
  endfacet
  facet normal -1 0 -2.22045e-16
    outer loop
      vertex -2.22045e-16 9.5 4
      vertex 0 10.5 3
      vertex -2.22045e-16 7.5 4
    endloop
  endfacet
  facet normal -1 0 -2.22045e-16
    outer loop
      vertex -2.22045e-16 7.5 4
      vertex 0 10.5 3
      vertex 0 6.5 3
    endloop
  endfacet
  facet normal -1 0 -2.22045e-16
    outer loop
      vertex -2.22045e-16 7.5 4
      vertex 0 6.5 3
      vertex -2.22045e-16 6.5 4
    endloop
  endfacet
  facet normal 0 -1 0
    outer loop
      vertex 0 6.5 4
      vertex -2.22045e-16 6.5 4
      vertex 0 6.5 3
    endloop
  endfacet
  facet normal 0 -1 0
    outer loop
      vertex 135 6.5 4
      vertex -2.22045e-16 6.5 4
      vertex 0 6.5 4
    endloop
  endfacet
  facet normal 0 -1 0
    outer loop
      vertex 135 6.5 4
      vertex 0 6.5 4
      vertex 9 6.5 4
    endloop
  endfacet
  facet normal 0 -1 0
    outer loop
      vertex 135 6.5 3
      vertex 135 6.5 4
      vertex 9 6.5 3
    endloop
  endfacet
  facet normal 0 -1 0
    outer loop
      vertex 9 6.5 4
      vertex 9 6.5 3
      vertex 135 6.5 4
    endloop
  endfacet
  facet normal 0 0 1
    outer loop
      vertex 0 6.5 4
      vertex 0 0 4
      vertex 9 0 4
    endloop
  endfacet
  facet normal 0 0 1
    outer loop
      vertex 9 6.5 4
      vertex 0 6.5 4
      vertex 9 0 4
    endloop
  endfacet
  facet normal 1 0 0
    outer loop
      vertex 11 44.5 3
      vertex 11 43 3
      vertex 11 51 3
    endloop
  endfacet
  facet normal 1 0 0
    outer loop
      vertex 11 43.385 6.3
      vertex 11 43.5 4
      vertex 11 51 6.3
    endloop
  endfacet
  facet normal 1 0 0
    outer loop
      vertex 11 43.5 4
      vertex 11 44.5 4
      vertex 11 51 6.3
    endloop
  endfacet
  facet normal 1 0 0
    outer loop
      vertex 11 51 6.3
      vertex 11 44.5 3
      vertex 11 51 3
    endloop
  endfacet
  facet normal 1 0 0
    outer loop
      vertex 11 44.5 4
      vertex 11 44.5 3
      vertex 11 51 6.3
    endloop
  endfacet
  facet normal 0 0 1
    outer loop
      vertex 0 51 6.3
      vertex 0 43.385 6.3
      vertex 11 43.385 6.3
    endloop
  endfacet
  facet normal 0 0 1
    outer loop
      vertex 11 51 6.3
      vertex 0 51 6.3
      vertex 11 43.385 6.3
    endloop
  endfacet
  facet normal -2.22045e-16 0 1
    outer loop
      vertex -2.22045e-16 44.5 4
      vertex -2.22045e-16 43.5 4
      vertex 0 43.5 4
    endloop
  endfacet
  facet normal -2.22045e-16 0 1
    outer loop
      vertex 0 44.5 4
      vertex -2.22045e-16 44.5 4
      vertex 0 43.5 4
    endloop
  endfacet
  facet normal -1.10884e-17 0.998752 0.0499376
    outer loop
      vertex 0 43.5 4
      vertex -2.22045e-16 43.5 4
      vertex 0 43.385 6.3
    endloop
  endfacet
  facet normal -1.10884e-17 0.998752 0.0499376
    outer loop
      vertex 11 43.5 4
      vertex 146 43.25 9
      vertex 146 43.5 4
    endloop
  endfacet
  facet normal -1.10884e-17 0.998752 0.0499376
    outer loop
      vertex -1.33227e-15 43.25 9
      vertex 146 43.25 9
      vertex 11 43.385 6.3
    endloop
  endfacet
  facet normal -1.10884e-17 0.998752 0.0499376
    outer loop
      vertex -1.33227e-15 43.25 9
      vertex 11 43.385 6.3
      vertex 0 43.385 6.3
    endloop
  endfacet
  facet normal -1.10884e-17 0.998752 0.0499376
    outer loop
      vertex -1.33227e-15 43.25 9
      vertex 0 43.385 6.3
      vertex -2.22045e-16 43.5 4
    endloop
  endfacet
  facet normal -1.10884e-17 0.998752 0.0499376
    outer loop
      vertex 11 43.385 6.3
      vertex 146 43.25 9
      vertex 11 43.5 4
    endloop
  endfacet
  facet normal 0 1 0
    outer loop
      vertex 0 44.5 3
      vertex -2.22045e-16 44.5 4
      vertex 0 44.5 4
    endloop
  endfacet
  facet normal -1 0 -2.22045e-16
    outer loop
      vertex -1.33227e-15 41.75 9
      vertex -1.33227e-15 43.25 9
      vertex -2.22045e-16 41.5 4
    endloop
  endfacet
  facet normal -1 0 -2.22045e-16
    outer loop
      vertex -2.22045e-16 41.5 4
      vertex -1.33227e-15 43.25 9
      vertex -2.22045e-16 43.5 4
    endloop
  endfacet
  facet normal -1 0 -2.22045e-16
    outer loop
      vertex -2.22045e-16 43.5 4
      vertex -2.22045e-16 44.5 4
      vertex 0 44.5 3
    endloop
  endfacet
  facet normal -1 0 -2.22045e-16
    outer loop
      vertex -2.22045e-16 43.5 4
      vertex 0 44.5 3
      vertex -2.22045e-16 41.5 4
    endloop
  endfacet
  facet normal -1 0 -2.22045e-16
    outer loop
      vertex -2.22045e-16 41.5 4
      vertex 0 44.5 3
      vertex 0 43 3
    endloop
  endfacet
  facet normal -1 0 -2.22045e-16
    outer loop
      vertex -2.22045e-16 41.5 4
      vertex 0 43 3
      vertex 0 40.5 3
    endloop
  endfacet
  facet normal -1 0 -2.22045e-16
    outer loop
      vertex -2.22045e-16 41.5 4
      vertex 0 40.5 3
      vertex -2.22045e-16 40.5 4
    endloop
  endfacet
  facet normal 0 0 -1
    outer loop
      vertex 1.5 43 3
      vertex 0 44.5 3
      vertex 1.5 49.5 3
    endloop
  endfacet
  facet normal 0 0 -1
    outer loop
      vertex 0 49.5 3
      vertex 8 49.5 3
      vertex 1.5 49.5 3
    endloop
  endfacet
  facet normal 0 0 -1
    outer loop
      vertex 0 49.5 3
      vertex 1.5 49.5 3
      vertex 0 44.5 3
    endloop
  endfacet
  facet normal 0 0 -1
    outer loop
      vertex 0 44.5 3
      vertex 1.5 43 3
      vertex 0 43 3
    endloop
  endfacet
  facet normal 1 0 0
    outer loop
      vertex 1.5 42.8 4.8
      vertex 1.5 43 3
      vertex 1.5 49.5 4.8
    endloop
  endfacet
  facet normal 1 0 0
    outer loop
      vertex 1.5 49.5 4.8
      vertex 1.5 43 3
      vertex 1.5 49.5 3
    endloop
  endfacet
  facet normal 1 0 0
    outer loop
      vertex 1.5 42.8 3
      vertex 1.5 43 3
      vertex 1.5 42.8 4.8
    endloop
  endfacet
  facet normal 0 0 -1
    outer loop
      vertex 8.2 49.5 4.8
      vertex 8.2 42.8 4.8
      vertex 1.5 49.5 4.8
    endloop
  endfacet
  facet normal 0 0 -1
    outer loop
      vertex 1.5 49.5 4.8
      vertex 8.2 42.8 4.8
      vertex 1.5 42.8 4.8
    endloop
  endfacet
  facet normal 0 1 0
    outer loop
      vertex 8.2 42.8 4.8
      vertex 8.2 42.8 3
      vertex 1.5 42.8 4.8
    endloop
  endfacet
  facet normal 0 1 0
    outer loop
      vertex 1.5 42.8 4.8
      vertex 8.2 42.8 3
      vertex 1.5 42.8 3
    endloop
  endfacet
  facet normal 2.22045e-16 0 -1
    outer loop
      vertex 137 40.5 3
      vertex 8.2 43 3
      vertex 11 43 3
    endloop
  endfacet
  facet normal 2.22045e-16 0 -1
    outer loop
      vertex 0 40.5 3
      vertex 0 43 3
      vertex 1.5 42.8 3
    endloop
  endfacet
  facet normal 2.22045e-16 0 -1
    outer loop
      vertex 137 40.5 3
      vertex 1.5 42.8 3
      vertex 8.2 42.8 3
    endloop
  endfacet
  facet normal 2.22045e-16 0 -1
    outer loop
      vertex 0 40.5 3
      vertex 1.5 42.8 3
      vertex 137 40.5 3
    endloop
  endfacet
  facet normal 2.22045e-16 0 -1
    outer loop
      vertex 0 40.5 3
      vertex 137 40.5 3
      vertex 146 40.5 3
    endloop
  endfacet
  facet normal 2.22045e-16 0 -1
    outer loop
      vertex 1.5 42.8 3
      vertex 0 43 3
      vertex 1.5 43 3
    endloop
  endfacet
  facet normal 2.22045e-16 0 -1
    outer loop
      vertex 137 40.5 3
      vertex 8.2 42.8 3
      vertex 8.2 43 3
    endloop
  endfacet
  facet normal 2.22045e-16 0 -1
    outer loop
      vertex 137 40.5 3
      vertex 11 43 3
      vertex 11 44.5 3
    endloop
  endfacet
  facet normal 2.22045e-16 0 -1
    outer loop
      vertex 137 40.5 3
      vertex 11 44.5 3
      vertex 137 44.5 3
    endloop
  endfacet
  facet normal -1 1.22465e-16 0
    outer loop
      vertex 135 7.5 4
      vertex 135 1.34711e-15 6.3
      vertex 135 7.615 6.3
    endloop
  endfacet
  facet normal -1 1.22465e-16 0
    outer loop
      vertex 135 6.5 4
      vertex 135 1.34711e-15 6.3
      vertex 135 7.5 4
    endloop
  endfacet
  facet normal -1 1.22465e-16 0
    outer loop
      vertex 135 1.34711e-15 3
      vertex 135 1.34711e-15 6.3
      vertex 135 6.5 3
    endloop
  endfacet
  facet normal -1 1.22465e-16 0
    outer loop
      vertex 135 1.34711e-15 3
      vertex 135 6.5 3
      vertex 135 8 3
    endloop
  endfacet
  facet normal -1 1.22465e-16 0
    outer loop
      vertex 135 6.5 3
      vertex 135 1.34711e-15 6.3
      vertex 135 6.5 4
    endloop
  endfacet
  facet normal 1 -1.22465e-16 0
    outer loop
      vertex 137.8 8.2 0
      vertex 137.8 8.2 3
      vertex 137.8 8 3
    endloop
  endfacet
  facet normal 1 -1.22465e-16 0
    outer loop
      vertex 137.8 1.5 4.8
      vertex 137.8 8.2 0
      vertex 137.8 8 3
    endloop
  endfacet
  facet normal 1 -1.22465e-16 0
    outer loop
      vertex 137.8 8.2 3
      vertex 137.8 8.2 4.8
      vertex 137.8 8 3
    endloop
  endfacet
  facet normal 1 -1.22465e-16 0
    outer loop
      vertex 137.8 8.2 4.8
      vertex 137.8 1.5 4.8
      vertex 137.8 8 3
    endloop
  endfacet
  facet normal 1 -1.22465e-16 0
    outer loop
      vertex 137.8 1.5 4.8
      vertex 137.8 1.5 0
      vertex 137.8 8.2 0
    endloop
  endfacet
  facet normal -1.22465e-16 -1 0
    outer loop
      vertex 144.5 8.2 3
      vertex 144.5 8.2 4.8
      vertex 137.8 8.2 4.8
    endloop
  endfacet
  facet normal -1.22465e-16 -1 0
    outer loop
      vertex 137.8 8.2 3
      vertex 144.5 8.2 3
      vertex 137.8 8.2 4.8
    endloop
  endfacet
  facet normal -1 1.22465e-16 0
    outer loop
      vertex 144.5 8.2 4.8
      vertex 144.5 8.2 3
      vertex 144.5 1.5 4.8
    endloop
  endfacet
  facet normal -1 1.22465e-16 0
    outer loop
      vertex 144.5 1.5 4.8
      vertex 144.5 8.2 3
      vertex 144.5 8 3
    endloop
  endfacet
  facet normal -1 1.22465e-16 0
    outer loop
      vertex 144.5 1.5 4.8
      vertex 144.5 8 3
      vertex 144.5 1.5 3
    endloop
  endfacet
  facet normal 1 -1.22465e-16 0
    outer loop
      vertex 146 0 6.3
      vertex 146 0 0
      vertex 146 1.5 0
    endloop
  endfacet
  facet normal 1 -1.22465e-16 0
    outer loop
      vertex 146 6.5 3
      vertex 146 0 6.3
      vertex 146 1.5 3
    endloop
  endfacet
  facet normal 1 -1.22465e-16 0
    outer loop
      vertex 146 1.5 3
      vertex 146 0 6.3
      vertex 146 1.5 0
    endloop
  endfacet
  facet normal 1 -1.22465e-16 0
    outer loop
      vertex 146 6.5 3
      vertex 146 6.5 4
      vertex 146 0 6.3
    endloop
  endfacet
  facet normal 1 -1.22465e-16 0
    outer loop
      vertex 146 8 3
      vertex 146 6.5 3
      vertex 146 1.5 3
    endloop
  endfacet
  facet normal 1 -1.22465e-16 0
    outer loop
      vertex 146 7.5 4
      vertex 146 0 6.3
      vertex 146 6.5 4
    endloop
  endfacet
  facet normal 1 -1.22465e-16 0
    outer loop
      vertex 146 7.615 6.3
      vertex 146 0 6.3
      vertex 146 7.5 4
    endloop
  endfacet
  facet normal -1.10884e-17 0.998752 0.0499376
    outer loop
      vertex -1.33227e-15 9.25 9
      vertex 146 9.25 9
      vertex -2.22045e-16 9.5 4
    endloop
  endfacet
  facet normal -1.10884e-17 0.998752 0.0499376
    outer loop
      vertex -2.22045e-16 9.5 4
      vertex 146 9.25 9
      vertex 146 9.5 4
    endloop
  endfacet
  facet normal -2.22045e-16 0 1
    outer loop
      vertex -1.33227e-15 9.25 9
      vertex -1.33227e-15 7.75 9
      vertex 146 7.75 9
    endloop
  endfacet
  facet normal -2.22045e-16 0 1
    outer loop
      vertex 146 9.25 9
      vertex -1.33227e-15 9.25 9
      vertex 146 7.75 9
    endloop
  endfacet
  facet normal -1.10884e-17 -0.998752 0.0499376
    outer loop
      vertex 146 7.75 9
      vertex -1.33227e-15 7.75 9
      vertex -2.22045e-16 7.5 4
    endloop
  endfacet
  facet normal -1.10884e-17 -0.998752 0.0499376
    outer loop
      vertex 135 7.615 6.3
      vertex 146 7.75 9
      vertex -2.22045e-16 7.5 4
    endloop
  endfacet
  facet normal -1.10884e-17 -0.998752 0.0499376
    outer loop
      vertex 135 7.5 4
      vertex 135 7.615 6.3
      vertex -2.22045e-16 7.5 4
    endloop
  endfacet
  facet normal -1.10884e-17 -0.998752 0.0499376
    outer loop
      vertex 146 7.5 4
      vertex 146 7.75 9
      vertex 146 7.615 6.3
    endloop
  endfacet
  facet normal -1.10884e-17 -0.998752 0.0499376
    outer loop
      vertex 135 7.615 6.3
      vertex 146 7.615 6.3
      vertex 146 7.75 9
    endloop
  endfacet
  facet normal -2.22045e-16 0 1
    outer loop
      vertex -2.22045e-16 7.5 4
      vertex -2.22045e-16 6.5 4
      vertex 135 6.5 4
    endloop
  endfacet
  facet normal -2.22045e-16 0 1
    outer loop
      vertex 135 7.5 4
      vertex -2.22045e-16 7.5 4
      vertex 135 6.5 4
    endloop
  endfacet
  facet normal 0 1 0
    outer loop
      vertex 11 44.5 3
      vertex 11 44.5 4
      vertex 137 44.5 3
    endloop
  endfacet
  facet normal 0 1 0
    outer loop
      vertex 137 44.5 4
      vertex 11 44.5 4
      vertex 146 44.5 4
    endloop
  endfacet
  facet normal 0 1 0
    outer loop
      vertex 137 44.5 3
      vertex 11 44.5 4
      vertex 137 44.5 4
    endloop
  endfacet
  facet normal -2.22045e-16 0 1
    outer loop
      vertex 11 44.5 4
      vertex 11 43.5 4
      vertex 146 43.5 4
    endloop
  endfacet
  facet normal -2.22045e-16 0 1
    outer loop
      vertex 146 44.5 4
      vertex 11 44.5 4
      vertex 146 43.5 4
    endloop
  endfacet
  facet normal 1 0 2.22045e-16
    outer loop
      vertex 146 43.25 9
      vertex 146 41.75 9
      vertex 146 41.5 4
    endloop
  endfacet
  facet normal 1 0 2.22045e-16
    outer loop
      vertex 146 43.5 4
      vertex 146 43.25 9
      vertex 146 41.5 4
    endloop
  endfacet
  facet normal 1 0 2.22045e-16
    outer loop
      vertex 146 40.5 4
      vertex 146 40.5 3
      vertex 146 41.5 4
    endloop
  endfacet
  facet normal 1 0 2.22045e-16
    outer loop
      vertex 146 40.5 3
      vertex 146 44.5 3
      vertex 146 41.5 4
    endloop
  endfacet
  facet normal 1 0 2.22045e-16
    outer loop
      vertex 146 44.5 3
      vertex 146 43.5 4
      vertex 146 41.5 4
    endloop
  endfacet
  facet normal 1 0 2.22045e-16
    outer loop
      vertex 146 44.5 4
      vertex 146 43.5 4
      vertex 146 44.5 3
    endloop
  endfacet
  facet normal -2.22045e-16 0 1
    outer loop
      vertex -1.33227e-15 43.25 9
      vertex -1.33227e-15 41.75 9
      vertex 146 41.75 9
    endloop
  endfacet
  facet normal -2.22045e-16 0 1
    outer loop
      vertex 146 43.25 9
      vertex -1.33227e-15 43.25 9
      vertex 146 41.75 9
    endloop
  endfacet
  facet normal -2.22045e-16 0 1
    outer loop
      vertex -2.22045e-16 41.5 4
      vertex -2.22045e-16 40.5 4
      vertex 146 40.5 4
    endloop
  endfacet
  facet normal -2.22045e-16 0 1
    outer loop
      vertex 146 41.5 4
      vertex -2.22045e-16 41.5 4
      vertex 146 40.5 4
    endloop
  endfacet
  facet normal -1.10884e-17 -0.998752 0.0499376
    outer loop
      vertex 146 41.75 9
      vertex -1.33227e-15 41.75 9
      vertex -2.22045e-16 41.5 4
    endloop
  endfacet
  facet normal -1.10884e-17 -0.998752 0.0499376
    outer loop
      vertex 146 41.5 4
      vertex 146 41.75 9
      vertex -2.22045e-16 41.5 4
    endloop
  endfacet
  facet normal 0 -1 0
    outer loop
      vertex 146 40.5 4
      vertex -2.22045e-16 40.5 4
      vertex 0 40.5 3
    endloop
  endfacet
  facet normal 0 -1 0
    outer loop
      vertex 146 40.5 3
      vertex 146 40.5 4
      vertex 0 40.5 3
    endloop
  endfacet
  facet normal 1 -1.22465e-16 0
    outer loop
      vertex 146 44.5 3
      vertex 146 40.5 3
      vertex 146 49.5 3
    endloop
  endfacet
  facet normal 1 -1.22465e-16 0
    outer loop
      vertex 146 49.5 0
      vertex 146 51 0
      vertex 146 49.5 3
    endloop
  endfacet
  facet normal 1 -1.22465e-16 0
    outer loop
      vertex 146 51 0
      vertex 146 51 4
      vertex 146 49.5 3
    endloop
  endfacet
  facet normal 1 -1.22465e-16 0
    outer loop
      vertex 146 51 4
      vertex 146 44.5 3
      vertex 146 49.5 3
    endloop
  endfacet
  facet normal 1 -1.22465e-16 0
    outer loop
      vertex 146 44.5 4
      vertex 146 44.5 3
      vertex 146 51 4
    endloop
  endfacet
  facet normal -1.22465e-16 -1 0
    outer loop
      vertex 146 40.5 3
      vertex 137 40.5 3
      vertex 138 40.5 3
    endloop
  endfacet
  facet normal -1.22465e-16 -1 0
    outer loop
      vertex 138 40.5 0
      vertex 154 40.5 0
      vertex 138 40.5 3
    endloop
  endfacet
  facet normal -1.22465e-16 -1 0
    outer loop
      vertex 154 40.5 0
      vertex 154 40.5 3
      vertex 146 40.5 3
    endloop
  endfacet
  facet normal -1.22465e-16 -1 0
    outer loop
      vertex 154 40.5 0
      vertex 146 40.5 3
      vertex 138 40.5 3
    endloop
  endfacet
  facet normal -1 1.22465e-16 0
    outer loop
      vertex 137 51 3
      vertex 137 40.5 3
      vertex 137 44.5 3
    endloop
  endfacet
  facet normal -1 1.22465e-16 0
    outer loop
      vertex 137 51 3
      vertex 137 44.5 3
      vertex 137 44.5 4
    endloop
  endfacet
  facet normal -1 1.22465e-16 0
    outer loop
      vertex 137 51 3
      vertex 137 44.5 4
      vertex 137 51 4
    endloop
  endfacet
  facet normal -1 1.22465e-16 0
    outer loop
      vertex 137 51 3
      vertex 137 51 4
      vertex 137 51 0
    endloop
  endfacet
  facet normal 0 0 1
    outer loop
      vertex 135 1.34711e-15 3
      vertex 130 0 3
      vertex 138 0 3
    endloop
  endfacet
  facet normal 0 0 1
    outer loop
      vertex 130 51 3
      vertex 130 0 3
      vertex 135 1.34711e-15 3
    endloop
  endfacet
  facet normal 0 0 1
    outer loop
      vertex 135 8 3
      vertex 137.8 8 3
      vertex 130 51 3
    endloop
  endfacet
  facet normal 0 0 1
    outer loop
      vertex 130 51 3
      vertex 135 1.34711e-15 3
      vertex 135 8 3
    endloop
  endfacet
  facet normal 0 0 1
    outer loop
      vertex 137.8 8.2 3
      vertex 130 51 3
      vertex 137.8 8 3
    endloop
  endfacet
  facet normal 0 0 1
    outer loop
      vertex 138 8.2 3
      vertex 130 51 3
      vertex 137.8 8.2 3
    endloop
  endfacet
  facet normal 0 0 1
    outer loop
      vertex 137 40.5 3
      vertex 130 51 3
      vertex 138 8.2 3
    endloop
  endfacet
  facet normal 0 0 1
    outer loop
      vertex 138 40.5 3
      vertex 137 40.5 3
      vertex 138 8.2 3
    endloop
  endfacet
  facet normal 0 0 1
    outer loop
      vertex 137 40.5 3
      vertex 137 51 3
      vertex 130 51 3
    endloop
  endfacet
  facet normal 0 0 1
    outer loop
      vertex 138 9.79717e-16 3
      vertex 135 1.34711e-15 3
      vertex 138 0 3
    endloop
  endfacet
  facet normal 0 0 1
    outer loop
      vertex 135 7.615 6.3
      vertex 135 1.34711e-15 6.3
      vertex 146 0 6.3
    endloop
  endfacet
  facet normal 0 0 1
    outer loop
      vertex 146 7.615 6.3
      vertex 135 7.615 6.3
      vertex 146 0 6.3
    endloop
  endfacet
  facet normal -1.22465e-16 -1 0
    outer loop
      vertex 135 1.34711e-15 6.3
      vertex 135 1.34711e-15 3
      vertex 138 9.79717e-16 3
    endloop
  endfacet
  facet normal -1.22465e-16 -1 0
    outer loop
      vertex 146 0 0
      vertex 135 1.34711e-15 6.3
      vertex 138 9.79717e-16 3
    endloop
  endfacet
  facet normal -1.22465e-16 -1 0
    outer loop
      vertex 138 9.79717e-16 0
      vertex 146 0 0
      vertex 138 9.79717e-16 3
    endloop
  endfacet
  facet normal -1.22465e-16 -1 0
    outer loop
      vertex 146 0 0
      vertex 146 0 6.3
      vertex 135 1.34711e-15 6.3
    endloop
  endfacet
  facet normal 0 0 -1
    outer loop
      vertex 130 0 0
      vertex 130 51 0
      vertex 138 0 0
    endloop
  endfacet
  facet normal 0 0 -1
    outer loop
      vertex 137.8 8.2 0
      vertex 130 51 0
      vertex 137 51 0
    endloop
  endfacet
  facet normal 0 0 -1
    outer loop
      vertex 138 1.5 0
      vertex 138 9.79717e-16 0
      vertex 137.8 1.5 0
    endloop
  endfacet
  facet normal 0 0 -1
    outer loop
      vertex 138 40.5 0
      vertex 137 51 0
      vertex 146 51 0
    endloop
  endfacet
  facet normal 0 0 -1
    outer loop
      vertex 137 51 0
      vertex 138 40.5 0
      vertex 138 8.2 0
    endloop
  endfacet
  facet normal 0 0 -1
    outer loop
      vertex 137.8 8.2 0
      vertex 137 51 0
      vertex 138 8.2 0
    endloop
  endfacet
  facet normal 0 0 -1
    outer loop
      vertex 137.8 1.5 0
      vertex 130 51 0
      vertex 137.8 8.2 0
    endloop
  endfacet
  facet normal 0 0 -1
    outer loop
      vertex 138 9.79717e-16 0
      vertex 138 0 0
      vertex 137.8 1.5 0
    endloop
  endfacet
  facet normal 0 0 -1
    outer loop
      vertex 138 0 0
      vertex 130 51 0
      vertex 137.8 1.5 0
    endloop
  endfacet
  facet normal 0 0 -1
    outer loop
      vertex 146 1.5 0
      vertex 138 9.79717e-16 0
      vertex 138 1.5 0
    endloop
  endfacet
  facet normal 0 0 -1
    outer loop
      vertex 138 9.79717e-16 0
      vertex 146 1.5 0
      vertex 146 0 0
    endloop
  endfacet
  facet normal 0 0 -1
    outer loop
      vertex 138 40.5 0
      vertex 146 51 0
      vertex 146 49.5 0
    endloop
  endfacet
  facet normal 0 0 -1
    outer loop
      vertex 138 40.5 0
      vertex 146 49.5 0
      vertex 154 49.5 0
    endloop
  endfacet
  facet normal 0 0 -1
    outer loop
      vertex 138 40.5 0
      vertex 154 49.5 0
      vertex 154 40.5 0
    endloop
  endfacet
  facet normal -1.22465e-16 -1 0
    outer loop
      vertex 138 8.2 0
      vertex 138 8.2 3
      vertex 137.8 8.2 3
    endloop
  endfacet
  facet normal -1.22465e-16 -1 0
    outer loop
      vertex 137.8 8.2 0
      vertex 138 8.2 0
      vertex 137.8 8.2 3
    endloop
  endfacet
  facet normal 1.22465e-16 1 0
    outer loop
      vertex 144.5 1.5 4.8
      vertex 144.5 1.5 3
      vertex 137.8 1.5 4.8
    endloop
  endfacet
  facet normal 1.22465e-16 1 0
    outer loop
      vertex 137.8 1.5 4.8
      vertex 144.5 1.5 3
      vertex 138 1.5 3
    endloop
  endfacet
  facet normal 1.22465e-16 1 0
    outer loop
      vertex 137.8 1.5 4.8
      vertex 138 1.5 3
      vertex 138 1.5 0
    endloop
  endfacet
  facet normal 1.22465e-16 1 0
    outer loop
      vertex 137.8 1.5 4.8
      vertex 138 1.5 0
      vertex 137.8 1.5 0
    endloop
  endfacet
  facet normal 0 0 -1
    outer loop
      vertex 144.5 8.2 4.8
      vertex 144.5 1.5 4.8
      vertex 137.8 8.2 4.8
    endloop
  endfacet
  facet normal 0 0 -1
    outer loop
      vertex 137.8 8.2 4.8
      vertex 144.5 1.5 4.8
      vertex 137.8 1.5 4.8
    endloop
  endfacet
  facet normal 0 0 -1
    outer loop
      vertex 144.5 1.5 3
      vertex 144.5 8 3
      vertex 146 8 3
    endloop
  endfacet
  facet normal 0 0 -1
    outer loop
      vertex 144.5 1.5 3
      vertex 146 8 3
      vertex 146 1.5 3
    endloop
  endfacet
  facet normal 0 0 -1
    outer loop
      vertex 144.5 1.5 3
      vertex 146 1.5 3
      vertex 138 1.5 3
    endloop
  endfacet
  facet normal 1.22465e-16 1 0
    outer loop
      vertex 138 1.5 0
      vertex 138 1.5 3
      vertex 146 1.5 0
    endloop
  endfacet
  facet normal 1.22465e-16 1 0
    outer loop
      vertex 146 1.5 0
      vertex 138 1.5 3
      vertex 146 1.5 3
    endloop
  endfacet
  facet normal 0 0 1
    outer loop
      vertex 137 51 4
      vertex 137 44.5 4
      vertex 146 44.5 4
    endloop
  endfacet
  facet normal 0 0 1
    outer loop
      vertex 146 51 4
      vertex 137 51 4
      vertex 146 44.5 4
    endloop
  endfacet
  facet normal 1.22465e-16 1 0
    outer loop
      vertex 137 51 0
      vertex 137 51 4
      vertex 146 51 0
    endloop
  endfacet
  facet normal 1.22465e-16 1 0
    outer loop
      vertex 146 51 0
      vertex 137 51 4
      vertex 146 51 4
    endloop
  endfacet
  facet normal 1.22465e-16 1 0
    outer loop
      vertex 146 49.5 0
      vertex 146 49.5 3
      vertex 154 49.5 0
    endloop
  endfacet
  facet normal 1.22465e-16 1 0
    outer loop
      vertex 154 49.5 0
      vertex 146 49.5 3
      vertex 147.5 49.5 3
    endloop
  endfacet
  facet normal 1.22465e-16 1 0
    outer loop
      vertex 154 49.5 0
      vertex 147.5 49.5 3
      vertex 147.5 49.5 4.75
    endloop
  endfacet
  facet normal 1.22465e-16 1 0
    outer loop
      vertex 154 49.5 0
      vertex 147.5 49.5 4.75
      vertex 154 49.5 4.75
    endloop
  endfacet
  facet normal 0 0 1
    outer loop
      vertex 147.5 43 3
      vertex 146 40.5 3
      vertex 154 40.5 3
    endloop
  endfacet
  facet normal 0 0 1
    outer loop
      vertex 147.5 43 3
      vertex 147.5 49.5 3
      vertex 146 49.5 3
    endloop
  endfacet
  facet normal 0 0 1
    outer loop
      vertex 146 49.5 3
      vertex 146 40.5 3
      vertex 147.5 43 3
    endloop
  endfacet
  facet normal 0 0 1
    outer loop
      vertex 154 43 3
      vertex 147.5 43 3
      vertex 154 40.5 3
    endloop
  endfacet
  facet normal 1 -1.22465e-16 0
    outer loop
      vertex 154 40.5 3
      vertex 154 40.5 0
      vertex 154 49.5 0
    endloop
  endfacet
  facet normal 1 -1.22465e-16 0
    outer loop
      vertex 154 43 3
      vertex 154 40.5 3
      vertex 154 49.5 0
    endloop
  endfacet
  facet normal 1 -1.22465e-16 0
    outer loop
      vertex 154 49.5 4.75
      vertex 154 43 3
      vertex 154 49.5 0
    endloop
  endfacet
  facet normal 1 -1.22465e-16 0
    outer loop
      vertex 154 43 4.75
      vertex 154 43 3
      vertex 154 49.5 4.75
    endloop
  endfacet
  facet normal 1 0 0
    outer loop
      vertex 138 8.2 3
      vertex 138 8.2 0
      vertex 138 40.5 0
    endloop
  endfacet
  facet normal 1 0 0
    outer loop
      vertex 138 40.5 3
      vertex 138 8.2 3
      vertex 138 40.5 0
    endloop
  endfacet
  facet normal 0 1 0
    outer loop
      vertex 130 51 0
      vertex 130 51 3
      vertex 137 51 0
    endloop
  endfacet
  facet normal 0 1 0
    outer loop
      vertex 137 51 0
      vertex 130 51 3
      vertex 137 51 3
    endloop
  endfacet
  facet normal -1 0 0
    outer loop
      vertex 130 0 0
      vertex 130 0 3
      vertex 130 51 0
    endloop
  endfacet
  facet normal -1 0 0
    outer loop
      vertex 130 51 0
      vertex 130 0 3
      vertex 130 51 3
    endloop
  endfacet
  facet normal 1 0 0
    outer loop
      vertex 138 0 3
      vertex 138 0 0
      vertex 138 9.79717e-16 0
    endloop
  endfacet
  facet normal 1 0 0
    outer loop
      vertex 138 9.79717e-16 3
      vertex 138 0 3
      vertex 138 9.79717e-16 0
    endloop
  endfacet
  facet normal 0 -1 0
    outer loop
      vertex 130 0 3
      vertex 130 0 0
      vertex 138 0 0
    endloop
  endfacet
  facet normal 0 -1 0
    outer loop
      vertex 138 0 3
      vertex 130 0 3
      vertex 138 0 0
    endloop
  endfacet
  facet normal 0 0 1
    outer loop
      vertex 147.5 49.5 4.75
      vertex 147.5 43 4.75
      vertex 154 43 4.75
    endloop
  endfacet
  facet normal 0 0 1
    outer loop
      vertex 154 49.5 4.75
      vertex 147.5 49.5 4.75
      vertex 154 43 4.75
    endloop
  endfacet
  facet normal -1 1.22465e-16 0
    outer loop
      vertex 147.5 43 3
      vertex 147.5 43 4.75
      vertex 147.5 49.5 3
    endloop
  endfacet
  facet normal -1 1.22465e-16 0
    outer loop
      vertex 147.5 49.5 3
      vertex 147.5 43 4.75
      vertex 147.5 49.5 4.75
    endloop
  endfacet
  facet normal -1.22465e-16 -1 0
    outer loop
      vertex 147.5 43 4.75
      vertex 147.5 43 3
      vertex 154 43 3
    endloop
  endfacet
  facet normal -1.22465e-16 -1 0
    outer loop
      vertex 154 43 4.75
      vertex 147.5 43 4.75
      vertex 154 43 3
    endloop
  endfacet
  facet normal -1 0 0
    outer loop
      vertex 32.4 0 0
      vertex 32.4 0 3
      vertex 32.4 51 0
    endloop
  endfacet
  facet normal -1 0 0
    outer loop
      vertex 32.4 51 0
      vertex 32.4 0 3
      vertex 32.4 51 3
    endloop
  endfacet
  facet normal 0 -1 0
    outer loop
      vertex 32.4 0 3
      vertex 32.4 0 0
      vertex 40.4 0 0
    endloop
  endfacet
  facet normal 0 -1 0
    outer loop
      vertex 40.4 0 3
      vertex 32.4 0 3
      vertex 40.4 0 0
    endloop
  endfacet
  facet normal 0 0 -1
    outer loop
      vertex 32.4 0 0
      vertex 32.4 51 0
      vertex 40.4 0 0
    endloop
  endfacet
  facet normal 0 0 -1
    outer loop
      vertex 40.4 0 0
      vertex 32.4 51 0
      vertex 40.4 51 0
    endloop
  endfacet
  facet normal 0 1 0
    outer loop
      vertex 32.4 51 0
      vertex 32.4 51 3
      vertex 40.4 51 0
    endloop
  endfacet
  facet normal 0 1 0
    outer loop
      vertex 40.4 51 0
      vertex 32.4 51 3
      vertex 40.4 51 3
    endloop
  endfacet
  facet normal 0 0 1
    outer loop
      vertex 32.4 51 3
      vertex 32.4 0 3
      vertex 40.4 0 3
    endloop
  endfacet
  facet normal 0 0 1
    outer loop
      vertex 40.4 51 3
      vertex 32.4 51 3
      vertex 40.4 0 3
    endloop
  endfacet
  facet normal 1 0 0
    outer loop
      vertex 40.4 0 3
      vertex 40.4 0 0
      vertex 40.4 51 0
    endloop
  endfacet
  facet normal 1 0 0
    outer loop
      vertex 40.4 51 3
      vertex 40.4 0 3
      vertex 40.4 51 0
    endloop
  endfacet
  facet normal -1 0 0
    outer loop
      vertex 56.8 0 0
      vertex 56.8 0 3
      vertex 56.8 51 0
    endloop
  endfacet
  facet normal -1 0 0
    outer loop
      vertex 56.8 51 0
      vertex 56.8 0 3
      vertex 56.8 51 3
    endloop
  endfacet
  facet normal 0 -1 0
    outer loop
      vertex 56.8 0 3
      vertex 56.8 0 0
      vertex 64.8 0 0
    endloop
  endfacet
  facet normal 0 -1 0
    outer loop
      vertex 64.8 0 3
      vertex 56.8 0 3
      vertex 64.8 0 0
    endloop
  endfacet
  facet normal 0 0 -1
    outer loop
      vertex 56.8 0 0
      vertex 56.8 51 0
      vertex 64.8 0 0
    endloop
  endfacet
  facet normal 0 0 -1
    outer loop
      vertex 64.8 0 0
      vertex 56.8 51 0
      vertex 64.8 51 0
    endloop
  endfacet
  facet normal 0 1 0
    outer loop
      vertex 56.8 51 0
      vertex 56.8 51 3
      vertex 64.8 51 0
    endloop
  endfacet
  facet normal 0 1 0
    outer loop
      vertex 64.8 51 0
      vertex 56.8 51 3
      vertex 64.8 51 3
    endloop
  endfacet
  facet normal 0 0 1
    outer loop
      vertex 56.8 51 3
      vertex 56.8 0 3
      vertex 64.8 0 3
    endloop
  endfacet
  facet normal 0 0 1
    outer loop
      vertex 64.8 51 3
      vertex 56.8 51 3
      vertex 64.8 0 3
    endloop
  endfacet
  facet normal 1 0 0
    outer loop
      vertex 64.8 0 3
      vertex 64.8 0 0
      vertex 64.8 51 0
    endloop
  endfacet
  facet normal 1 0 0
    outer loop
      vertex 64.8 51 3
      vertex 64.8 0 3
      vertex 64.8 51 0
    endloop
  endfacet
  facet normal -1 0 0
    outer loop
      vertex 81.2 0 0
      vertex 81.2 0 3
      vertex 81.2 51 0
    endloop
  endfacet
  facet normal -1 0 0
    outer loop
      vertex 81.2 51 0
      vertex 81.2 0 3
      vertex 81.2 51 3
    endloop
  endfacet
  facet normal 0 -1 0
    outer loop
      vertex 81.2 0 3
      vertex 81.2 0 0
      vertex 89.2 0 0
    endloop
  endfacet
  facet normal 0 -1 0
    outer loop
      vertex 89.2 0 3
      vertex 81.2 0 3
      vertex 89.2 0 0
    endloop
  endfacet
  facet normal 0 0 -1
    outer loop
      vertex 81.2 0 0
      vertex 81.2 51 0
      vertex 89.2 0 0
    endloop
  endfacet
  facet normal 0 0 -1
    outer loop
      vertex 89.2 0 0
      vertex 81.2 51 0
      vertex 89.2 51 0
    endloop
  endfacet
  facet normal 0 1 0
    outer loop
      vertex 81.2 51 0
      vertex 81.2 51 3
      vertex 89.2 51 0
    endloop
  endfacet
  facet normal 0 1 0
    outer loop
      vertex 89.2 51 0
      vertex 81.2 51 3
      vertex 89.2 51 3
    endloop
  endfacet
  facet normal 0 0 1
    outer loop
      vertex 81.2 51 3
      vertex 81.2 0 3
      vertex 89.2 0 3
    endloop
  endfacet
  facet normal 0 0 1
    outer loop
      vertex 89.2 51 3
      vertex 81.2 51 3
      vertex 89.2 0 3
    endloop
  endfacet
  facet normal 1 0 0
    outer loop
      vertex 89.2 0 3
      vertex 89.2 0 0
      vertex 89.2 51 0
    endloop
  endfacet
  facet normal 1 0 0
    outer loop
      vertex 89.2 51 3
      vertex 89.2 0 3
      vertex 89.2 51 0
    endloop
  endfacet
  facet normal -1 0 0
    outer loop
      vertex 105.6 0 0
      vertex 105.6 0 3
      vertex 105.6 51 0
    endloop
  endfacet
  facet normal -1 0 0
    outer loop
      vertex 105.6 51 0
      vertex 105.6 0 3
      vertex 105.6 51 3
    endloop
  endfacet
  facet normal 0 -1 0
    outer loop
      vertex 105.6 0 3
      vertex 105.6 0 0
      vertex 113.6 0 0
    endloop
  endfacet
  facet normal 0 -1 0
    outer loop
      vertex 113.6 0 3
      vertex 105.6 0 3
      vertex 113.6 0 0
    endloop
  endfacet
  facet normal 0 0 -1
    outer loop
      vertex 105.6 0 0
      vertex 105.6 51 0
      vertex 113.6 0 0
    endloop
  endfacet
  facet normal 0 0 -1
    outer loop
      vertex 113.6 0 0
      vertex 105.6 51 0
      vertex 113.6 51 0
    endloop
  endfacet
  facet normal 0 1 0
    outer loop
      vertex 105.6 51 0
      vertex 105.6 51 3
      vertex 113.6 51 0
    endloop
  endfacet
  facet normal 0 1 0
    outer loop
      vertex 113.6 51 0
      vertex 105.6 51 3
      vertex 113.6 51 3
    endloop
  endfacet
  facet normal 0 0 1
    outer loop
      vertex 105.6 51 3
      vertex 105.6 0 3
      vertex 113.6 0 3
    endloop
  endfacet
  facet normal 0 0 1
    outer loop
      vertex 113.6 51 3
      vertex 105.6 51 3
      vertex 113.6 0 3
    endloop
  endfacet
  facet normal 1 0 0
    outer loop
      vertex 113.6 0 3
      vertex 113.6 0 0
      vertex 113.6 51 0
    endloop
  endfacet
  facet normal 1 0 0
    outer loop
      vertex 113.6 51 3
      vertex 113.6 0 3
      vertex 113.6 51 0
    endloop
  endfacet
endsolid OpenSCAD_Model
